<svg xmlns="http://www.w3.org/2000/svg" xmlns:xlink="http://www.w3.org/1999/xlink" version="1.1" x="0px" y="0px" viewBox="0 0 100 125" enable-background="new 0 0 100 100" xml:space="preserve"><path d="M42.1,39.7c-0.8,0-1.4,0.4-1.8,1.1c-0.2-0.1-0.4-0.2-0.7-0.2c-0.9,0-1.5,0.7-1.5,1.5s0.7,1.5,1.5,1.5c0.4,0,1.9,0,2.4,0  c1.1,0,2-0.9,2-2S43.2,39.7,42.1,39.7z"/><g><path d="M47.6,37.6c-0.3,0-0.7,0.1-1,0.2c-0.5-0.9-1.4-1.5-2.5-1.5c-1.6,0-2.9,1.3-2.9,2.9c0,0.1,0,0.1,0,0.2   c0.3-0.1,0.6-0.2,0.9-0.2c1.3,0,2.3,1,2.3,2.3c0,0.2,0,0.4-0.1,0.5c0.9,0,2.6,0,3.1,0c1.2,0,2.2-1,2.2-2.2   C49.8,38.6,48.8,37.6,47.6,37.6z"/></g><path d="M93.8,33h-13v-4.1c0-0.7-0.5-1.2-1.2-1.2H20.2c-0.7,0-1.2,0.5-1.2,1.2v4H6.2C5.5,33,5,33.3,5,33.9v31.6  C5,66.2,5.5,67,6.2,67H19v4.1c0,0.7,0.5,1.2,1.2,1.2h59.4c0.7,0,1.2-0.5,1.2-1.2V67h13c0.7,0,1.2-0.5,1.2-1.2V34.2  C95,33.5,94.5,33,93.8,33z M19,61.6l-0.2,0.3l-2.1-2.5l-2.1,2.5l-1.4-2.2l3.2-5.7l2.6,4.2V61.6z M19,55.6l-2.2-3.3  c-0.1-0.2-0.4-0.3-0.6-0.3c-0.2,0-0.5,0.2-0.6,0.4l-7,12.2H7.4V35.4l11.5,0V55.6z M78.4,69.9h-2.7L61.2,34.4c-0.3-0.8-1.7-0.8-2,0  L45.7,65.7L36.5,52c-0.2-0.3-0.6-0.5-0.9-0.4c-0.4,0-0.7,0.2-0.9,0.6L24.1,69.9h-2.7V30.1h57.1V69.9z M30.8,63l5-8.3l5.6,8.7  l-1.9,2.8l-3.2-3.6L33,66.2L30.8,63z M56.2,47.4l4-9.8l4.9,12l-1.3,1.9l-3.2-4.4L58,50.8L56.2,47.4z M82.8,52.2l-2-2.7V44l2.8,6.9  L82.8,52.2z M92.6,64.6h-1.8l-9.8-24c0-0.1-0.1-0.2-0.2-0.2v-5h11.8V64.6z"/></svg>
