<svg xmlns="http://www.w3.org/2000/svg" xmlns:xlink="http://www.w3.org/1999/xlink" version="1.1" x="0px" y="0px" viewBox="0 0 100 125" enable-background="new 0 0 100 100" xml:space="preserve"><path d="M40.957,53.978c0.31,0.179,0.654,0.268,1,0.268s0.69-0.089,1-0.268l16.087-9.287c0.619-0.357,1-1.018,1-1.732  s-0.381-1.375-1-1.732l-16.087-9.287c-0.619-0.357-1.381-0.357-2,0s-1,1.018-1,1.732v18.574  C39.957,52.96,40.338,53.62,40.957,53.978z M43.957,37.135l10.087,5.823l-10.087,5.823V37.135z"/><path d="M93.178,32.908h-6.012v-3.341c0-1.104-0.896-2-2-2h-7.121v-4.231c0-1.104-0.896-2-2-2H23.956c-1.104,0-2,0.896-2,2v4.231  h-7.12c-1.104,0-2,0.896-2,2v3.341H6.822c-1.104,0-2,0.896-2,2V65.09c0,1.104,0.896,2,2,2h6.014v3.342c0,1.104,0.896,2,2,2h7.12  v4.232c0,1.104,0.896,2,2,2h52.089c1.104,0,2-0.896,2-2v-4.232h7.121c1.104,0,2-0.896,2-2V67.09h6.012c1.104,0,2-0.896,2-2V34.908  C95.178,33.804,94.282,32.908,93.178,32.908z M74.045,25.336v35.125H25.956V25.336H74.045z M8.822,63.09V36.908h4.014V63.09H8.822z   M16.836,68.432V31.567h5.12v36.864H16.836z M25.956,74.664V64.461h48.089v10.203H25.956z M83.166,68.432h-5.121V31.567h5.121  V68.432z M91.178,63.09h-4.012V36.908h4.012V63.09z"/></svg>
